<svg width="224" height="72" viewBox="0 0 224 72" fill="none" xmlns="http://www.w3.org/2000/svg">
<path d="M202.816 69.978H189.701V64.4209C189.491 64.544 189.293 64.6857 189.109 64.8443C184.722 69.9956 179.097 71.9773 172.394 71.5069C161.417 70.7483 151.381 63.1742 148 52.9481C145.958 46.709 146.323 39.9393 149.023 33.9523C151.723 27.9652 156.566 23.1877 162.613 20.5466C169.404 17.5299 176.367 16.736 183.395 19.7468C185.208 20.6309 186.971 21.6124 188.677 22.6871V2.56989H202.84L202.816 69.978ZM189.269 44.833C189.297 42.0406 188.49 39.3027 186.951 36.9659C185.412 34.629 183.209 32.7982 180.621 31.7051C178.034 30.6121 175.178 30.306 172.416 30.8255C169.653 31.345 167.108 32.6669 165.102 34.6237C163.096 36.5805 161.719 39.0844 161.147 41.8184C160.574 44.5524 160.831 47.3937 161.885 49.9826C162.939 52.5715 164.743 54.7917 167.068 56.3622C169.393 57.9326 172.134 58.7828 174.946 58.805C176.813 58.8315 178.667 58.49 180.4 57.8003C182.133 57.1107 183.711 56.0865 185.043 54.7872C186.375 53.4878 187.434 51.939 188.16 50.2304C188.885 48.5218 189.262 46.6873 189.269 44.833Z" fill="white"/>
<path d="M142.695 69.1077H128.574V67.3435C128.574 59.8047 128.639 52.2601 128.532 44.7154C128.536 42.4701 128.223 40.2353 127.602 38.0763C125.856 32.531 121.314 29.532 115.589 29.7907C110.071 30.0494 105.766 33.6777 104.505 39.323C104.121 41.0418 103.923 42.7962 103.913 44.5566C103.848 52.1483 103.883 59.74 103.883 67.3318V69.0489H89.7794C89.7283 68.7255 89.6947 68.3997 89.6787 68.0727C89.6787 59.84 89.5248 51.6073 89.7202 43.3746C89.957 33.6189 93.8648 25.6273 102.545 20.6054C118.253 11.4965 141.262 19.588 142.63 41.8751C143.169 50.6606 142.778 59.5166 142.802 68.3373C142.784 68.5963 142.749 68.8537 142.695 69.1077Z" fill="white"/>
<path d="M33.8738 18.5529H48.0841V20.1289C48.0841 27.9676 47.9716 35.8122 48.1492 43.6509C48.2052 46.2359 48.7016 48.7929 49.6176 51.2132C51.3939 55.8352 55.3905 58.111 60.3582 57.9228C65.2134 57.7405 69.062 55.0296 70.5068 50.3135C71.2069 47.9124 71.5715 45.4272 71.5903 42.9276C71.7265 35.4358 71.6436 27.9323 71.6436 20.4406V18.6176H85.6763C85.7658 18.7736 85.8241 18.9453 85.848 19.1233C85.8065 28.3792 86.073 37.6528 85.6111 46.891C85.019 58.5226 76.9251 67.6256 65.7285 70.1072C50.1387 73.5708 35.6737 63.3446 34.1757 47.632C33.7376 43.0158 33.9271 38.3349 33.8856 33.6834C33.8442 29.1319 33.8856 24.5745 33.8856 20.0172L33.8738 18.5529Z" fill="white"/>
<path d="M20.0425 69.1035H5.7611V67.3099C5.7611 55.7959 5.7611 44.2819 5.7611 32.7679C5.7611 30.2687 6.08083 30.5569 3.44008 30.5274C2.40391 30.5274 1.36774 30.5274 0.331574 30.4804C0.24868 30.4804 0.159866 30.3981 0 30.3216V18.5077H5.58347C6.79727 3.33017 19.3201 -1.23897 29.5397 0.278192V11.1747C22.4997 12.9389 19.8589 14.9559 20.1846 18.5195H29.5278V30.5039H20.0543L20.0425 69.1035Z" fill="white"/>
<path d="M223.522 70.8013H209.507V3.34619H223.522V70.8013Z" fill="white"/>
</svg>
